<?xml version="1.0" encoding="iso-8859-1"?>
<!-- Generator: Adobe Illustrator 18.0.0, SVG Export Plug-In . SVG Version: 6.00 Build 0)  -->
<!DOCTYPE svg PUBLIC "-//W3C//DTD SVG 1.1//EN" "http://www.w3.org/Graphics/SVG/1.1/DTD/svg11.dtd">
<svg version="1.1" id="Capa_1" xmlns="http://www.w3.org/2000/svg" xmlns:xlink="http://www.w3.org/1999/xlink" x="0px" y="0px"
	 viewBox="0 0 449 449" style="enable-background:new 0 0 449 449;" xml:space="preserve">
<g>
	<path d="M349,143.961V104H100v39.961H0V345h100h15h53h113h53h15h100V143.961H349z M15,330V158.961h85v21.02H31.5v15H100v23H31.5v15
		H100v23H31.5v15H100v23H31.5v15H100V330H15z M183,330v-5.5h83v5.5H183z M266,309.5h-17V266h17V309.5z M234,309.5h-19V266h19V309.5z
		 M200,309.5h-17V266h17V309.5z M334,330h-53v-79H168v79h-53V143.961V119h219v24.961V330z M434,330h-85v-21.02h68.5v-15H349v-23
		h68.5v-15H349v-23h68.5v-15H349v-23h68.5v-15H349v-21.02h85V330z"/>
	<rect x="129.5" y="141.98" width="190" height="15"/>
	<rect x="129.5" y="179.98" width="190" height="15"/>
	<rect x="129.5" y="217.98" width="190" height="15"/>
	<rect x="289.5" y="255.98" width="30" height="15"/>
	<rect x="129.5" y="255.98" width="30" height="15"/>
	<rect x="289.5" y="293.98" width="30" height="15"/>
	<rect x="129.5" y="293.98" width="30" height="15"/>
</g>
<g>
</g>
<g>
</g>
<g>
</g>
<g>
</g>
<g>
</g>
<g>
</g>
<g>
</g>
<g>
</g>
<g>
</g>
<g>
</g>
<g>
</g>
<g>
</g>
<g>
</g>
<g>
</g>
<g>
</g>
</svg>
